<svg width="33" height="26" viewBox="0 0 33 26" fill="none" xmlns="http://www.w3.org/2000/svg">
<path d="M2.49312 10.0624L1.24656 11.309L0 10.0624L1.24656 8.81584L2.49312 10.0624ZM32.467 24.1677C32.467 24.6354 32.2812 25.0838 31.9505 25.4145C31.6199 25.7451 31.1714 25.9309 30.7038 25.9309C30.2362 25.9309 29.7877 25.7451 29.457 25.4145C29.1264 25.0838 28.9406 24.6354 28.9406 24.1677H32.467ZM10.0624 20.1248L1.24656 11.309L3.73968 8.81584L12.5555 17.6317L10.0624 20.1248ZM1.24656 8.81584L10.0624 0L12.5555 2.49312L3.73968 11.309L1.24656 8.81584ZM2.49312 8.29923H20.1248V11.8256H2.49312V8.29923ZM32.467 20.6414V24.1677H28.9406V20.6414H32.467ZM20.1248 8.29923C23.3981 8.29923 26.5374 9.59956 28.852 11.9142C31.1666 14.2288 32.467 17.3681 32.467 20.6414H28.9406C28.9406 18.3033 28.0118 16.061 26.3585 14.4077C24.7052 12.7544 22.4629 11.8256 20.1248 11.8256V8.29923Z" fill="#302C2C"/>
</svg>
