<svg width="36" height="37" viewBox="0 0 36 37" fill="none" xmlns="http://www.w3.org/2000/svg">
<path d="M10.1093 35.1132L18.1456 26.9233L26.182 35.1132C27.2477 36.1993 28.693 36.8094 30.2002 36.8094C31.7073 36.8094 33.1526 36.1993 34.2183 35.1132C35.284 34.0272 35.8827 32.5542 35.8827 31.0183C35.8827 29.4824 35.284 28.0094 34.2183 26.9233L26.0393 18.8788L34.2183 10.5435C35.284 9.45744 35.8827 7.98444 35.8827 6.44854C35.8827 4.91263 35.284 3.43964 34.2183 2.35359C33.1526 1.26754 31.7073 0.657404 30.2002 0.657404C28.693 0.657404 27.2477 1.26754 26.182 2.35359L18.1456 10.8342L10.1093 2.35359C9.04361 1.26754 7.59823 0.657405 6.09112 0.657405C4.58401 0.657403 3.13863 1.26754 2.07295 2.35359C1.00726 3.43964 0.408569 4.91263 0.40857 6.44854C0.40857 7.98445 1.00727 9.45744 2.07295 10.5435L10.2519 18.8788L2.07295 26.9233C1.00727 28.0094 0.40857 29.4824 0.40857 31.0183C0.408569 32.5542 1.00726 34.0272 2.07295 35.1132C3.13863 36.1993 4.58401 36.8094 6.09112 36.8094C7.59823 36.8094 9.04361 36.1993 10.1093 35.1132Z" fill="#302C2C"/>
</svg>
