<svg width="78" height="78" viewBox="0 0 78 78" fill="none" xmlns="http://www.w3.org/2000/svg">
<path fill-rule="evenodd" clip-rule="evenodd" d="M19.5 6.5C16.9141 6.5 14.4342 7.52723 12.6057 9.35571C10.7772 11.1842 9.75 13.6641 9.75 16.25V61.75C9.75 64.3359 10.7772 66.8158 12.6057 68.6443C14.4342 70.4728 16.9141 71.5 19.5 71.5H39C41.5859 71.5 44.0658 70.4728 45.8943 68.6443C47.7228 66.8158 48.75 64.3359 48.75 61.75V16.25C48.75 13.6641 47.7228 11.1842 45.8943 9.35571C44.0658 7.52723 41.5859 6.5 39 6.5H19.5ZM52.9522 23.7023C53.5617 23.093 54.3882 22.7507 55.25 22.7507C56.1118 22.7507 56.9383 23.093 57.5478 23.7023L70.5478 36.7023C71.157 37.3117 71.4993 38.1382 71.4993 39C71.4993 39.8618 71.157 40.6883 70.5478 41.2977L57.5478 54.2978C56.9348 54.8898 56.1138 55.2173 55.2617 55.2099C54.4096 55.2025 53.5944 54.8607 52.9918 54.2582C52.3893 53.6556 52.0475 52.8404 52.0401 51.9883C52.0327 51.1362 52.3602 50.3152 52.9522 49.7023L60.4045 42.25H32.5C31.638 42.25 30.8114 41.9076 30.2019 41.2981C29.5924 40.6886 29.25 39.862 29.25 39C29.25 38.138 29.5924 37.3114 30.2019 36.7019C30.8114 36.0924 31.638 35.75 32.5 35.75H60.4045L52.9522 28.2977C52.343 27.6883 52.0007 26.8618 52.0007 26C52.0007 25.1382 52.343 24.3117 52.9522 23.7023Z" fill="#302C2C"/>
</svg>
