<svg width="42" height="42" viewBox="0 0 42 42" fill="none" xmlns="http://www.w3.org/2000/svg">
<path d="M25.5545 1.72559H15.8294L14.7138 7.30717C13.7901 7.72111 12.9118 8.22962 12.0929 8.82456L6.69578 6.99852L1.83496 15.42L6.11297 19.179C6.00966 20.1857 6.00966 21.2003 6.11297 22.2069L1.83496 25.9659L6.69751 34.3874L12.0929 32.5631C12.9067 33.1528 13.7827 33.6632 14.7138 34.0788L15.8294 39.6604H25.5545L26.6702 34.0788C27.5939 33.6648 28.4722 33.1563 29.2911 32.5614L34.6882 34.3874L39.5507 25.9659L35.271 22.2069C35.3743 21.2003 35.3743 20.1857 35.271 19.179L39.549 15.42L34.6865 6.99852L29.2928 8.82284C28.4739 8.22849 27.5955 7.72056 26.6719 7.30717L25.5545 1.72559ZM20.692 27.5902C18.8627 27.5902 17.1084 26.8635 15.8149 25.57C14.5214 24.2766 13.7948 22.5222 13.7948 20.693C13.7948 18.8637 14.5214 17.1094 15.8149 15.8159C17.1084 14.5224 18.8627 13.7957 20.692 13.7957C22.5212 13.7957 24.2756 14.5224 25.5691 15.8159C26.8625 17.1094 27.5892 18.8637 27.5892 20.693C27.5892 22.5222 26.8625 24.2766 25.5691 25.57C24.2756 26.8635 22.5212 27.5902 20.692 27.5902Z" fill="#302C2C"/>
</svg>
